<svg version="1.1" id="_x32_" xmlns="http://www.w3.org/2000/svg" x="0" y="0" viewBox="0 0 512 512" style="width:48px;height:48px" xml:space="preserve" opacity="1"><style>.st0{fill:#4b4b4b}</style><path class="st0" d="M405.971 256.164c-12.832 0-25.412 2.3-37.2 6.894l-65.114-104.884c18.918-11.548 61.559-42.161 48.979-76.866-11.182-31.02-75.414-37.531-127.328-37.531-9.764 0-19.97.23-30.335.687a16.386 16.386 0 00-11.471 5.34 16.406 16.406 0 00-4.316 11.907c.361 8.706 7.737 15.787 17.216 15.787h.037a592.232 592.232 0 0125.705-.562c55.951 0 94.482 7.96 99.393 15.627 2.811 7.742-16.162 25.707-35.648 37.629-2.196 1.351-4.347 2.616-6.545 3.787l-8.698 4.774.023 29.103 32.767 52.658 2.042 2.979-70.155 44.827-46.43-70.889c-10.204.148-20.665.285-31.092.48-2.584.016-5.19.043-7.755.051l.055.086c-.062 0-.127.004-.19.004l57.015 87.039.51.785-17.659 11.407c-20.302-26.132-50.826-41.119-83.748-41.119C47.564 256.164 0 303.728 0 362.195c0 58.463 47.564 106.027 106.03 106.027 58.465 0 106.029-47.564 106.029-106.027 0-10.767-1.618-21.401-4.878-31.422l48.548-30.914 68.432-43.734 1.029-.652 14.926 23.712c-25.531 20.3-40.174 50.554-40.174 83.011 0 58.463 47.564 106.027 106.03 106.027 58.465 0 106.029-47.564 106.029-106.027-.001-58.468-47.565-106.032-106.03-106.032zm0 169.617c-35.06 0-63.583-28.525-63.583-63.585 0-17.497 7.4-34.416 20.309-46.452l42.897 68.656 27.1-14.39 1.846-.968-.008-.008.142-.078-32.392-51.745-10.54-16.935c4.804-1.105 9.59-1.667 14.228-1.667 35.06 0 63.583 28.521 63.583 63.585.001 35.061-28.522 63.587-63.582 63.587zM153.716 320.05l-57.868 37.004 10.064 15.822 10.236 15.822 37.036-23.755 15.953-10.15c.283 2.428.476 4.891.476 7.402 0 35.06-28.523 63.585-63.583 63.585s-63.584-28.525-63.584-63.585c0-35.064 28.523-63.585 63.584-63.585 17.212 0 33.649 7.14 45.668 19.37.672.696 1.38 1.347 2.018 2.07z"/><path class="st0" d="M144.513 185.614h.004c17.99 0 38.265-.347 54.239-.925 26.472-.964 26.472-1.952 26.472-2.28v-34.264c0-2.865-1.97-5.477-4.39-5.828l-115.283-16.466a18.693 18.693 0 00-2.686-.195c-5.381 0-9.348 2.362-10.562 5.758-.072.199-.113.41-.164.617-.119.48-.381.914-.381 1.433v48.946c.001 2.646 28.686 3.204 52.751 3.204z"/></svg>