<!--?xml version="1.0" encoding="utf-8"?-->
<!-- Generator: Adobe Illustrator 18.0.0, SVG Export Plug-In . SVG Version: 6.00 Build 0)  -->

<svg version="1.1" id="_x32_" xmlns="http://www.w3.org/2000/svg" xmlns:xlink="http://www.w3.org/1999/xlink" x="0px" y="0px" viewBox="0 0 512 512" style="width: 512px; height: 512px; opacity: 1;" xml:space="preserve">
<style type="text/css">
	.st0{fill:#4B4B4B;}
</style>
<g>
	<path class="st0" d="M405.971,256.164c-12.832,0-25.412,2.3-37.2,6.894l-65.114-104.884c18.918-11.548,61.559-42.161,48.979-76.866
		c-11.182-31.02-75.414-37.531-127.328-37.531c-9.764,0-19.97,0.23-30.335,0.687c-4.411,0.184-8.483,2.081-11.471,5.34
		c-2.988,3.268-4.52,7.496-4.316,11.907c0.361,8.706,7.737,15.787,17.216,15.787c0.012,0,0.024,0,0.037,0
		c8.592-0.375,17.241-0.562,25.705-0.562c55.951,0,94.482,7.96,99.393,15.627c2.811,7.742-16.162,25.707-35.648,37.629
		c-2.196,1.351-4.347,2.616-6.545,3.787l-8.698,4.774l0.023,29.103l32.767,52.658l2.042,2.979l-70.155,44.827l-46.43-70.889
		c-10.204,0.148-20.665,0.285-31.092,0.48c-2.584,0.016-5.19,0.043-7.755,0.051l0.055,0.086c-0.062,0-0.127,0.004-0.19,0.004
		l57.015,87.039l0.51,0.785l-17.659,11.407c-20.302-26.132-50.826-41.119-83.748-41.119C47.564,256.164,0,303.728,0,362.195
		c0,58.463,47.564,106.027,106.03,106.027c58.465,0,106.029-47.564,106.029-106.027c0-10.767-1.618-21.401-4.878-31.422
		l48.548-30.914l68.432-43.734l1.029-0.652l14.926,23.712c-25.531,20.3-40.174,50.554-40.174,83.011
		c0,58.463,47.564,106.027,106.03,106.027c58.465,0,106.029-47.564,106.029-106.027C512,303.728,464.436,256.164,405.971,256.164z
		 M405.971,425.781c-35.06,0-63.583-28.525-63.583-63.585c0-17.497,7.4-34.416,20.309-46.452l42.897,68.656l27.1-14.39l1.846-0.968
		l-0.008-0.008l0.142-0.078l-32.392-51.745l-10.54-16.935c4.804-1.105,9.59-1.667,14.228-1.667c35.06,0,63.583,28.521,63.583,63.585
		C469.554,397.255,441.031,425.781,405.971,425.781z M153.716,320.05l-57.868,37.004l10.064,15.822l10.236,15.822l37.036-23.755
		l15.953-10.15c0.283,2.428,0.476,4.891,0.476,7.402c0,35.06-28.523,63.585-63.583,63.585c-35.06,0-63.584-28.525-63.584-63.585
		c0-35.064,28.523-63.585,63.584-63.585c17.212,0,33.649,7.14,45.668,19.37C152.37,318.676,153.078,319.327,153.716,320.05z" style="fill: rgb(0, 0, 0);"></path>
	<path class="st0" d="M144.513,185.614c0.002,0,0.004,0,0.004,0c17.99,0,38.265-0.347,54.239-0.925
		c26.472-0.964,26.472-1.952,26.472-2.28v-34.264c0-2.865-1.97-5.477-4.39-5.828l-115.283-16.466
		c-0.916-0.133-1.814-0.195-2.686-0.195c-5.381,0-9.348,2.362-10.562,5.758c-0.072,0.199-0.113,0.41-0.164,0.617
		c-0.119,0.48-0.381,0.914-0.381,1.433v48.946C91.763,185.056,120.448,185.614,144.513,185.614z" style="fill: rgb(0, 0, 0);"></path>
</g>
</svg>
